<svg width="20" height="20" viewBox="0 0 20 20" fill="none" xmlns="http://www.w3.org/2000/svg">
<path fill-rule="evenodd" clip-rule="evenodd" d="M6.67798 1.6665H4.14653C2.77582 1.6665 1.66675 2.78521 1.66675 4.16277V6.7162C1.66675 8.09319 2.77606 9.21246 4.14653 9.21246H6.67798C8.04845 9.21246 9.15777 8.09319 9.15777 6.7162V4.16277C9.15777 2.78521 8.04869 1.6665 6.67798 1.6665ZM4.14651 2.82927H6.67795C7.40421 2.82927 7.99495 3.42513 7.99495 4.16274V6.71617C7.99495 7.45329 7.4039 8.04964 6.67795 8.04964H4.14651C3.42056 8.04964 2.82951 7.45329 2.82951 6.71617V4.16274C2.82951 3.42513 3.42025 2.82927 4.14651 2.82927ZM15.8544 1.6665H13.3222C11.9515 1.6665 10.8424 2.78521 10.8424 4.16277V6.7162C10.8424 8.09319 11.9517 9.21246 13.3222 9.21246H15.8544C17.2243 9.21246 18.3334 8.09303 18.3334 6.7162V4.16277C18.3334 2.78537 17.2245 1.6665 15.8544 1.6665ZM13.3222 2.82927H15.8544C16.58 2.82927 17.1706 3.42522 17.1706 4.16274V6.71617C17.1706 7.4532 16.5796 8.04964 15.8544 8.04964H13.3222C12.5962 8.04964 12.0052 7.45329 12.0052 6.71617V4.16274C12.0052 3.42513 12.5959 2.82927 13.3222 2.82927ZM4.14653 10.7871H6.67798C8.04885 10.7871 9.15777 11.906 9.15777 13.2842V15.8368C9.15777 17.2144 8.04869 18.3331 6.67798 18.3331H4.14653C2.77582 18.3331 1.66675 17.2144 1.66675 15.8368V13.2842C1.66675 11.906 2.77566 10.7871 4.14653 10.7871ZM6.67795 11.9499H4.14651C3.42016 11.9499 2.82951 12.5459 2.82951 13.2842V15.8368C2.82951 16.5744 3.42025 17.1703 4.14651 17.1703H6.67795C7.40421 17.1703 7.99495 16.5744 7.99495 15.8368V13.2842C7.99495 12.5459 7.4043 11.9499 6.67795 11.9499ZM15.8544 10.7871H13.3222C11.9513 10.7871 10.8424 11.906 10.8424 13.2842V15.8368C10.8424 17.2144 11.9515 18.3331 13.3222 18.3331H15.8544C17.2245 18.3331 18.3334 17.2142 18.3334 15.8368V13.2842C18.3334 11.9062 17.2247 10.7871 15.8544 10.7871ZM13.3222 11.9499H15.8544C16.58 11.9499 17.1706 12.5459 17.1706 13.2842V15.8368C17.1706 16.5743 16.58 17.1703 15.8544 17.1703H13.3222C12.5959 17.1703 12.0052 16.5744 12.0052 15.8368V13.2842C12.0052 12.5459 12.5958 11.9499 13.3222 11.9499Z" fill="#200E32"/>
</svg>
