<svg width="20" height="20" viewBox="0 0 20 20" fill="none" xmlns="http://www.w3.org/2000/svg">
<path d="M6.59984 1.6665H3.78317C2.6165 1.6665 1.6665 2.62484 1.6665 3.80067V6.6415C1.6665 7.82484 2.6165 8.77484 3.78317 8.77484H6.59984C7.77484 8.77484 8.7165 7.82484 8.7165 6.6415V3.80067C8.7165 2.62484 7.77484 1.6665 6.59984 1.6665Z" fill="#47BCC8"/>
<path d="M6.59984 11.2246H3.78317C2.6165 11.2246 1.6665 12.1754 1.6665 13.3588V16.1996C1.6665 17.3746 2.6165 18.3329 3.78317 18.3329H6.59984C7.77484 18.3329 8.7165 17.3746 8.7165 16.1996V13.3588C8.7165 12.1754 7.77484 11.2246 6.59984 11.2246Z" fill="#FCCE37"/>
<path d="M16.2165 1.6665H13.3999C12.2249 1.6665 11.2832 2.62484 11.2832 3.80067V6.6415C11.2832 7.82484 12.2249 8.77484 13.3999 8.77484H16.2165C17.3832 8.77484 18.3332 7.82484 18.3332 6.6415V3.80067C18.3332 2.62484 17.3832 1.6665 16.2165 1.6665Z" fill="#755FA6"/>
<path d="M16.2165 11.2246H13.3999C12.2249 11.2246 11.2832 12.1754 11.2832 13.3588V16.1996C11.2832 17.3746 12.2249 18.3329 13.3999 18.3329H16.2165C17.3832 18.3329 18.3332 17.3746 18.3332 16.1996V13.3588C18.3332 12.1754 17.3832 11.2246 16.2165 11.2246Z" fill="#E17BAF"/>
</svg>
