<svg width="56" height="56" viewBox="0 0 56 56" fill="none" xmlns="http://www.w3.org/2000/svg">
<rect opacity="0.1" width="56" height="56" rx="12" fill="#47BCC8"/>
<path fill-rule="evenodd" clip-rule="evenodd" d="M25.8774 31.2065C22.0334 31.2065 18.7504 31.7875 18.7504 34.1155C18.7504 36.4425 22.0124 37.0455 25.8774 37.0455C29.7214 37.0455 33.0044 36.4635 33.0044 34.1365C33.0044 31.8095 29.7424 31.2065 25.8774 31.2065Z" stroke="#47BCC8" stroke-width="1.5" stroke-linecap="round" stroke-linejoin="round"/>
<path fill-rule="evenodd" clip-rule="evenodd" d="M25.8774 27.886C28.4134 27.886 30.4454 25.853 30.4454 23.318C30.4454 20.782 28.4134 18.75 25.8774 18.75C23.3424 18.75 21.3094 20.782 21.3094 23.318C21.3094 25.853 23.3424 27.886 25.8774 27.886Z" stroke="#47BCC8" stroke-width="1.5" stroke-linecap="round" stroke-linejoin="round"/>
<path d="M35.2041 24.6694V28.6794" stroke="#47BCC8" stroke-width="1.5" stroke-linecap="round" stroke-linejoin="round"/>
<path d="M37.25 26.6743H33.16" stroke="#47BCC8" stroke-width="1.5" stroke-linecap="round" stroke-linejoin="round"/>
</svg>
