<svg width="56" height="56" viewBox="0 0 56 56" fill="none" xmlns="http://www.w3.org/2000/svg">
<rect opacity="0.1" width="56" height="56" rx="12" fill="#47BCC8"/>
<path d="M32.5 29C31.3 29 29.43 29.34 28 30C26.57 29.33 24.7 29 23.5 29C21.33 29 17 30.08 17 32.25V35H39V32.25C39 30.08 34.67 29 32.5 29ZM28.5 33.5H18.5V32.25C18.5 31.71 21.06 30.5 23.5 30.5C25.94 30.5 28.5 31.71 28.5 32.25V33.5ZM37.5 33.5H30V32.25C30 31.79 29.8 31.39 29.48 31.03C30.36 30.73 31.44 30.5 32.5 30.5C34.94 30.5 37.5 31.71 37.5 32.25V33.5ZM23.5 28C25.43 28 27 26.43 27 24.5C27 22.57 25.43 21 23.5 21C21.57 21 20 22.57 20 24.5C20 26.43 21.57 28 23.5 28ZM23.5 22.5C24.6 22.5 25.5 23.4 25.5 24.5C25.5 25.6 24.6 26.5 23.5 26.5C22.4 26.5 21.5 25.6 21.5 24.5C21.5 23.4 22.4 22.5 23.5 22.5ZM32.5 28C34.43 28 36 26.43 36 24.5C36 22.57 34.43 21 32.5 21C30.57 21 29 22.57 29 24.5C29 26.43 30.57 28 32.5 28ZM32.5 22.5C33.6 22.5 34.5 23.4 34.5 24.5C34.5 25.6 33.6 26.5 32.5 26.5C31.4 26.5 30.5 25.6 30.5 24.5C30.5 23.4 31.4 22.5 32.5 22.5Z" fill="#47BCC8"/>
</svg>
