<svg width="56" height="56" viewBox="0 0 56 56" fill="none" xmlns="http://www.w3.org/2000/svg">
<rect opacity="0.1" width="56" height="56" rx="12" fill="#FCCE37"/>
<path fill-rule="evenodd" clip-rule="evenodd" d="M37.524 25.7527C36.8849 21.8193 33.5439 18.8931 29.5606 18.7779C29.3712 18.7705 29.1867 18.8387 29.0476 18.9674C28.9085 19.0962 28.8264 19.275 28.8192 19.4644V19.4644V19.5285L29.2677 26.2378C29.2971 26.6895 29.6854 27.0328 30.1373 27.0067L36.865 26.5582C37.0545 26.5442 37.2307 26.4552 37.3544 26.3108C37.4781 26.1665 37.5392 25.9788 37.524 25.7893V25.7527Z" stroke="#FCCE37" stroke-width="1.5" stroke-linecap="round" stroke-linejoin="round"/>
<path d="M24.9016 22.7688C25.3296 22.6698 25.7675 22.8887 25.9451 23.2905C25.9916 23.385 26.0196 23.4875 26.0275 23.5926C26.119 24.8923 26.3112 27.739 26.4211 29.2768C26.4398 29.5538 26.5682 29.8119 26.7778 29.994C26.9874 30.1761 27.2609 30.2671 27.5378 30.247V30.247L33.1854 29.8992C33.4375 29.884 33.6847 29.9738 33.8684 30.1471C34.0522 30.3204 34.1561 30.562 34.1556 30.8145V30.8145C33.9268 34.2249 31.4765 37.0759 28.1393 37.815C24.8021 38.554 21.3773 37.0039 19.73 34.009C19.2383 33.1471 18.9268 32.1941 18.8147 31.2081C18.7667 30.9055 18.7483 30.599 18.7598 30.2928C18.7695 26.6508 21.3273 23.5127 24.8925 22.7688" stroke="#FCCE37" stroke-width="1.5" stroke-linecap="round" stroke-linejoin="round"/>
</svg>
