<svg width="20" height="20" viewBox="0 0 20 20" fill="none" xmlns="http://www.w3.org/2000/svg">
<path fill-rule="evenodd" clip-rule="evenodd" d="M10.0302 1.6665H9.97074C7.16312 1.6665 4.58887 3.70364 4.33912 6.40064C4.32247 6.59357 4.31111 6.79072 4.30378 7.00309L4.29352 7.49962L4.29149 7.9448L4.30402 7.89405C4.18816 8.45904 3.92112 8.98311 3.53053 9.41132L3.47455 9.48334C3.14011 9.99138 2.94795 10.5794 2.91821 11.1867L2.9175 11.3852C2.90043 12.1838 3.1741 12.9741 3.68894 13.6018C4.38711 14.3389 5.29088 14.7787 6.26088 14.872C8.74174 15.1414 11.2517 15.1414 13.7395 14.8713C14.7029 14.7826 15.6094 14.3416 16.2783 13.6317C16.7833 13.0274 17.059 12.3023 17.0826 11.5515L17.0834 11.2154C17.0558 10.5815 16.8624 9.99291 16.5239 9.48706L16.4725 9.42105L16.3469 9.27335C16.0647 8.92088 15.8587 8.51486 15.7414 8.08057L15.7043 7.92464L15.6966 7.76111C15.6943 7.68756 15.6931 7.606 15.6928 7.50414L15.6927 6.94322C15.6907 6.72865 15.6844 6.57607 15.6696 6.40431C15.4113 3.70222 12.8363 1.6665 10.0302 1.6665ZM9.97073 2.82931H10.0302C12.2781 2.82931 14.3287 4.45048 14.5257 6.5109C14.5373 6.64617 14.5425 6.77522 14.5441 6.96693L14.5463 7.7208C14.5489 7.84136 14.5536 7.94162 14.5617 8.05444L14.5724 8.13166L14.6265 8.36149C14.7867 8.96944 15.0745 9.53659 15.4707 10.0256L15.5856 10.1603L15.5729 10.1392C15.7926 10.4676 15.9178 10.8487 15.9353 11.2416L15.9347 11.3778C15.948 11.9246 15.7667 12.444 15.4237 12.8554C14.9705 13.3348 14.3226 13.6501 13.6262 13.7142C11.2107 13.9764 8.78281 13.9764 6.37648 13.7151C5.67243 13.6474 5.02409 13.3319 4.54482 12.8274C4.23413 12.4462 4.05481 11.9284 4.06607 11.3977L4.0662 11.2155L4.08076 11.0567C4.11582 10.7911 4.20457 10.5219 4.34212 10.2741L4.41187 10.1586C4.92324 9.58349 5.27418 8.88413 5.42875 8.13041L5.44074 8.01223L5.44618 7.24617L5.45956 6.85751C5.46563 6.73491 5.4734 6.61841 5.48314 6.5055C5.67344 4.45057 7.72217 2.82931 9.97073 2.82931ZM4.41187 10.1586C4.3995 10.1726 4.38704 10.1864 4.37449 10.2002L4.41554 10.1526L4.41187 10.1586ZM12.1734 16.4087C11.9262 16.2074 11.5647 16.2471 11.3658 16.4972C11.2797 16.6057 11.1799 16.7029 11.0689 16.7867C10.6924 17.082 10.2225 17.2135 9.75541 17.1579C9.28899 17.1023 8.86502 16.8649 8.57734 16.4994C8.37968 16.2483 8.01832 16.2069 7.77023 16.407C7.52213 16.607 7.48125 16.9728 7.67891 17.224C8.15592 17.83 8.8549 18.2214 9.62117 18.3127C10.3868 18.4039 11.1577 18.1881 11.764 17.7124C11.944 17.5767 12.1139 17.4111 12.2609 17.2261C12.4597 16.9759 12.4205 16.61 12.1734 16.4087Z" fill="#200E32"/>
</svg>
