<svg width="56" height="56" viewBox="0 0 56 56" fill="none" xmlns="http://www.w3.org/2000/svg">
<rect opacity="0.1" width="56" height="56" rx="12" fill="#E27CB0"/>
<path d="M33.5948 26.9319C35.1972 26.9319 36.497 25.633 36.497 24.0306C36.497 22.4283 35.1972 21.1294 33.5948 21.1294" stroke="#E27CB0" stroke-width="1.5" stroke-linecap="round" stroke-linejoin="round"/>
<path d="M34.9291 30.085C35.4076 30.118 35.8833 30.1858 36.3517 30.2912C37.0026 30.4186 37.7854 30.6854 38.0641 31.2693C38.2419 31.6433 38.2419 32.0787 38.0641 32.4536C37.7863 33.0375 37.0026 33.3034 36.3517 33.4372" stroke="#E27CB0" stroke-width="1.5" stroke-linecap="round" stroke-linejoin="round"/>
<path d="M22.29 26.9319C20.6877 26.9319 19.3878 25.633 19.3878 24.0306C19.3878 22.4283 20.6877 21.1294 22.29 21.1294" stroke="#E27CB0" stroke-width="1.5" stroke-linecap="round" stroke-linejoin="round"/>
<path d="M20.9558 30.085C20.4773 30.118 20.0015 30.1858 19.5331 30.2912C18.8823 30.4186 18.0994 30.6854 17.8217 31.2693C17.6429 31.6433 17.6429 32.0787 17.8217 32.4536C18.0985 33.0375 18.8823 33.3034 19.5331 33.4372" stroke="#E27CB0" stroke-width="1.5" stroke-linecap="round" stroke-linejoin="round"/>
<path fill-rule="evenodd" clip-rule="evenodd" d="M27.9378 30.7095C31.1846 30.7095 33.9584 31.2008 33.9584 33.1671C33.9584 35.1324 31.2029 35.6421 27.9378 35.6421C24.69 35.6421 21.9171 35.1507 21.9171 33.1845C21.9171 31.2182 24.6726 30.7095 27.9378 30.7095Z" stroke="#E27CB0" stroke-width="1.5" stroke-linecap="round" stroke-linejoin="round"/>
<path fill-rule="evenodd" clip-rule="evenodd" d="M27.9377 27.9049C25.7964 27.9049 24.0795 26.188 24.0795 24.0457C24.0795 21.9044 25.7964 20.1875 27.9377 20.1875C30.0791 20.1875 31.796 21.9044 31.796 24.0457C31.796 26.188 30.0791 27.9049 27.9377 27.9049Z" stroke="#E27CB0" stroke-width="1.5" stroke-linecap="round" stroke-linejoin="round"/>
</svg>
