<svg width="32" height="32" viewBox="0 0 32 32" fill="none" xmlns="http://www.w3.org/2000/svg">
<path d="M15 2V6.00256H17V2H15ZM6.8064 5.39616L5.3889 6.80614L8.22266 9.6399L9.63264 8.2224L6.8064 5.39616ZM25.1875 5.39616L22.36 8.2224L23.7775 9.6399L26.605 6.80614L25.1875 5.39616ZM7.99744 16.0013C7.99744 18.855 9.56368 21.425 11.9974 22.8512V26.0012C11.9974 26.5537 12.4449 27.0012 12.9974 27.0012H18.9974C19.55 27.0012 19.9974 26.5537 19.9974 26.0012V22.8512C22.4312 21.4262 23.9974 18.8563 23.9974 16.0013C23.9974 11.5949 20.4038 8.00128 15.9437 8.00128C11.5248 8.06003 7.99744 11.6362 7.99744 16.0013V16.0013ZM21.9974 16.0013C21.9974 18.3213 20.6649 20.4275 18.5699 21.4214C18.2199 21.5864 17.9974 21.9389 17.9974 22.3252V25.0014H13.9974V22.3252C13.9974 21.9389 13.7749 21.5864 13.4249 21.4214C11.3286 20.4277 9.99738 18.3214 9.99738 16.0013C9.99738 12.7075 12.6236 10.0451 15.9574 10.0013C19.3225 10.0013 21.9974 12.6763 21.9974 16.0013H21.9974ZM2 14.9988V16.9988L6.00256 17V15L2 14.9988ZM26 14.9988V16.9988H30V14.9988H26ZM8.2224 22.3661L5.38864 25.1936L6.80614 26.6099L9.63238 23.7761L8.2224 22.3661ZM23.7773 22.3661L22.3598 23.7761L25.1873 26.6099L26.6048 25.1936L23.7773 22.3661ZM11.9962 27.9988V29.9988L19.9974 30V28L11.9962 27.9988Z" fill="white"/>
</svg>
