<svg width="20" height="20" viewBox="0 0 20 20" fill="none" xmlns="http://www.w3.org/2000/svg">
<path fill-rule="evenodd" clip-rule="evenodd" d="M13.6822 2.16901C13.644 1.88523 13.4026 1.6665 13.1105 1.6665C12.7919 1.6665 12.5336 1.9268 12.5336 2.2479V2.89069H7.47344V2.2479L7.46818 2.16901C7.42998 1.88523 7.1886 1.6665 6.89652 1.6665C6.5779 1.6665 6.3196 1.9268 6.3196 2.2479V2.90512C3.95546 3.06795 2.5 4.59977 2.5 7.07133V14.0866C2.5 16.7392 4.13195 18.3332 6.74688 18.3332H13.253C15.8711 18.3332 17.4999 16.7659 17.4999 14.1452V7.07133C17.5075 4.59889 16.0567 3.06749 13.6874 2.90505V2.2479L13.6822 2.16901ZM12.5336 4.05348V4.79889L12.5389 4.87778C12.5771 5.16156 12.8184 5.38029 13.1105 5.38029C13.4291 5.38029 13.6874 5.11999 13.6874 4.79889V4.07066C15.4112 4.21408 16.3516 5.25212 16.3461 7.06954V7.40624H3.65385V7.07133C3.65385 5.25505 4.59938 4.21482 6.3196 4.07078V4.79889L6.32487 4.87778C6.36307 5.16156 6.60445 5.38029 6.89652 5.38029C7.21515 5.38029 7.47344 5.11999 7.47344 4.79889V4.05348H12.5336ZM3.65385 8.56903V14.0866C3.65385 16.0887 4.76127 17.1704 6.74688 17.1704H13.253C15.2455 17.1704 16.3461 16.1114 16.3461 14.1452L16.3461 8.56903H3.65385ZM14.001 11.0151C14.001 10.694 13.7427 10.4337 13.4241 10.4337L13.3387 10.439C13.0571 10.4775 12.84 10.7208 12.84 11.0151C12.84 11.3362 13.0983 11.5965 13.4241 11.5965L13.5023 11.5912C13.7839 11.5527 14.001 11.3094 14.001 11.0151ZM10.0107 10.4337C10.3293 10.4337 10.5876 10.694 10.5876 11.0151C10.5876 11.3094 10.3705 11.5527 10.0889 11.5912L10.0107 11.5965C9.6849 11.5965 9.4266 11.3362 9.4266 11.0151C9.4266 10.7208 9.64364 10.4775 9.92524 10.439L10.0107 10.4337ZM7.16702 11.0151C7.16702 10.694 6.90873 10.4337 6.5901 10.4337L6.50469 10.439C6.2231 10.4775 6.00605 10.7208 6.00605 11.0151C6.00605 11.3362 6.26435 11.5965 6.58298 11.5965L6.66839 11.5912C6.94998 11.5527 7.16702 11.3094 7.16702 11.0151ZM13.4241 13.4465C13.7427 13.4465 14.001 13.7068 14.001 14.0279C14.001 14.3222 13.7839 14.5655 13.5023 14.604L13.4241 14.6093C13.0983 14.6093 12.84 14.349 12.84 14.0279C12.84 13.7336 13.0571 13.4903 13.3387 13.4518L13.4241 13.4465ZM10.5876 14.0279C10.5876 13.7068 10.3293 13.4465 10.0107 13.4465L9.92524 13.4518C9.64364 13.4903 9.4266 13.7336 9.4266 14.0279C9.4266 14.349 9.6849 14.6093 10.0107 14.6093L10.0889 14.604C10.3705 14.5655 10.5876 14.3222 10.5876 14.0279ZM6.5901 13.4465C6.90873 13.4465 7.16702 13.7068 7.16702 14.0279C7.16702 14.3222 6.94998 14.5655 6.66839 14.604L6.58298 14.6093C6.26435 14.6093 6.00605 14.349 6.00605 14.0279C6.00605 13.7336 6.2231 13.4903 6.50469 13.4518L6.5901 13.4465Z" fill="#1D1D26"/>
</svg>
