<svg width="16" height="16" viewBox="0 0 16 16" fill="none" xmlns="http://www.w3.org/2000/svg">
<path d="M14.6667 9.50725V2.66666C14.6667 1.93131 14.0683 1.33331 13.3333 1.33331H11.3333V0.333313C11.3333 0.149094 11.1842 0 11 0C10.8158 0 10.6667 0.149094 10.6667 0.333344V1.33334H4.66666V0.333344C4.66666 0.149094 4.51759 0 4.33334 0C4.14909 0 4 0.149094 4 0.333344V1.33334H1.33334C0.598312 1.33334 0 1.93131 0 2.66666V13.3333C0 14.0687 0.598312 14.6667 1.33334 14.6667H9.50719C10.1804 15.4805 11.1974 16 12.3333 16C14.3548 16 16 14.3552 16 12.3333C16 11.1973 15.4804 10.1803 14.6667 9.50725ZM0.666656 2.66666C0.666656 2.29916 0.9655 2 1.33334 2H4V2.66666C3.63216 2.66666 3.33334 2.96581 3.33334 3.33331C3.33334 3.70081 3.63219 3.99997 4 3.99997C4.36781 3.99997 4.66666 3.70081 4.66666 3.33331V2H10.6667V2.66666C10.2988 2.66666 10 2.96581 10 3.33331C10 3.70081 10.2988 3.99997 10.6667 3.99997C11.0345 3.99997 11.3333 3.70081 11.3333 3.33331V2H13.3333C13.7012 2 14 2.29916 14 2.66666V4.66666H0.666656V2.66666ZM1.33334 14C0.9655 14 0.666687 13.7008 0.666687 13.3333V5.33334H14V9.0715C13.4993 8.81453 12.9337 8.66669 12.3333 8.66669C10.3118 8.66669 8.66669 10.3115 8.66669 12.3333C8.66669 12.9337 8.81459 13.4993 9.0715 14H1.33334ZM12.3333 15.3333C10.679 15.3333 9.33334 13.9876 9.33334 12.3333C9.33334 10.6791 10.6791 9.33334 12.3333 9.33334C13.9876 9.33334 15.3333 10.6791 15.3333 12.3333C15.3333 13.9876 13.9876 15.3333 12.3333 15.3333Z" fill="#616167"/>
<path d="M11.5182 11.944C11.6712 11.8418 11.7129 11.6351 11.6107 11.4817C11.5071 11.3274 11.3001 11.2874 11.1484 11.3893L10.8392 11.5957C11.1113 11.0456 11.679 10.6667 12.3333 10.6667C12.888 10.6667 13.4043 10.9414 13.7155 11.4017C13.819 11.5543 14.026 11.5941 14.1784 11.4912C14.3307 11.3883 14.3711 11.181 14.2676 11.0287C13.8327 10.3844 13.1094 10 12.3333 10C11.0469 10 10 11.0469 10 12.3333C10 12.4564 10.0677 12.5693 10.1758 12.6273C10.2252 12.6537 10.2793 12.6667 10.3333 12.6667C10.3978 12.6667 10.4623 12.6478 10.5183 12.6107L11.5182 11.944Z" fill="#616167"/>
<path d="M14.491 12.0393C14.383 11.9817 14.2514 11.9876 14.1486 12.0559L13.1486 12.7226C12.9956 12.8248 12.9539 13.0315 13.0561 13.1848C13.1584 13.3382 13.3654 13.3779 13.5184 13.2773L13.8277 13.0709C13.5555 13.621 12.9878 13.9999 12.3335 13.9999C11.7788 13.9999 11.2625 13.7252 10.9513 13.2649C10.8485 13.1119 10.6401 13.0729 10.4884 13.1754C10.3361 13.2783 10.2957 13.4856 10.3992 13.6379C10.8341 14.2822 11.5575 14.6666 12.3335 14.6666C13.62 14.6666 14.6668 13.6197 14.6668 12.3333C14.6668 12.2102 14.5991 12.0973 14.491 12.0393Z" fill="#616167"/>
</svg>
