<svg width="20" height="20" viewBox="0 0 20 20" fill="none" xmlns="http://www.w3.org/2000/svg">
<path fill-rule="evenodd" clip-rule="evenodd" d="M13.6822 2.16901C13.644 1.88523 13.4026 1.6665 13.1105 1.6665C12.7919 1.6665 12.5336 1.9268 12.5336 2.2479V2.89069H7.47344V2.2479L7.46818 2.16901C7.42998 1.88523 7.1886 1.6665 6.89652 1.6665C6.5779 1.6665 6.3196 1.9268 6.3196 2.2479V2.90512C3.95546 3.06795 2.5 4.59977 2.5 7.07133V14.0866C2.5 16.7392 4.13195 18.3332 6.74688 18.3332H13.253C15.8711 18.3332 17.4999 16.7659 17.4999 14.1452V7.07133C17.5075 4.59889 16.0567 3.06749 13.6874 2.90505V2.2479L13.6822 2.16901ZM12.5336 4.05348V4.79889L12.5389 4.87778C12.5771 5.16156 12.8184 5.38029 13.1105 5.38029C13.4291 5.38029 13.6874 5.11999 13.6874 4.79889V4.07066C15.4112 4.21408 16.3516 5.25212 16.3461 7.06954V7.40624H3.65385V7.07133C3.65385 5.25505 4.59938 4.21482 6.3196 4.07078V4.79889L6.32487 4.87778C6.36307 5.16156 6.60445 5.38029 6.89652 5.38029C7.21515 5.38029 7.47344 5.11999 7.47344 4.79889V4.05348H12.5336ZM3.65385 8.56903V14.0866C3.65385 16.0887 4.76127 17.1704 6.74688 17.1704H13.253C15.2455 17.1704 16.3461 16.1114 16.3461 14.1452L16.3461 8.56903H3.65385Z" fill="#47BCC8"/>
<path d="M13.4241 10.4336C13.7428 10.4336 14.0011 10.6939 14.0011 11.015C14.0011 11.3093 13.784 11.5526 13.5024 11.5911L13.4241 11.5964C13.0984 11.5964 12.8401 11.3361 12.8401 11.015C12.8401 10.7207 13.0571 10.4774 13.3387 10.4389L13.4241 10.4336Z" fill="#E27CB0"/>
<path d="M10.0106 10.4336C10.3292 10.4336 10.5875 10.6939 10.5875 11.015C10.5875 11.3093 10.3704 11.5526 10.0888 11.5911L10.0106 11.5964C9.68481 11.5964 9.42651 11.3361 9.42651 11.015C9.42651 10.7207 9.64355 10.4774 9.92515 10.4389L10.0106 10.4336Z" fill="#FCCE36"/>
<path d="M6.59015 10.4336C6.90877 10.4336 7.16707 10.6939 7.16707 11.015C7.16707 11.3093 6.95003 11.5526 6.66843 11.5911L6.58302 11.5964C6.2644 11.5964 6.0061 11.3361 6.0061 11.015C6.0061 10.7207 6.22314 10.4774 6.50474 10.4389L6.59015 10.4336Z" fill="#765EA6"/>
<path d="M13.4241 13.4463C13.7428 13.4463 14.0011 13.7066 14.0011 14.0277C14.0011 14.322 13.784 14.5653 13.5024 14.6038L13.4241 14.6091C13.0984 14.6091 12.8401 14.3488 12.8401 14.0277C12.8401 13.7333 13.0571 13.4901 13.3387 13.4516L13.4241 13.4463Z" fill="#FCCE36"/>
<path d="M10.0106 13.4463C10.3292 13.4463 10.5875 13.7066 10.5875 14.0277C10.5875 14.322 10.3704 14.5653 10.0888 14.6038L10.0106 14.6091C9.68481 14.6091 9.42651 14.3488 9.42651 14.0277C9.42651 13.7333 9.64355 13.4901 9.92515 13.4516L10.0106 13.4463Z" fill="#765EA6"/>
<path d="M6.59015 13.4463C6.90877 13.4463 7.16707 13.7066 7.16707 14.0277C7.16707 14.322 6.95003 14.5653 6.66843 14.6038L6.58302 14.6091C6.2644 14.6091 6.0061 14.3488 6.0061 14.0277C6.0061 13.7333 6.22314 13.4901 6.50474 13.4516L6.59015 13.4463Z" fill="#E27CB0"/>
</svg>
