<svg width="16" height="16" viewBox="0 0 16 16" fill="none" xmlns="http://www.w3.org/2000/svg">
<path fill-rule="evenodd" clip-rule="evenodd" d="M11.6266 4.1576C11.6533 4.20422 11.6999 4.23751 11.7599 4.23751C13.3599 4.23751 14.6666 5.54273 14.6666 7.14095V11.0966C14.6666 12.6948 13.3599 14 11.7599 14H4.23992C2.63325 14 1.33325 12.6948 1.33325 11.0966V7.14095C1.33325 5.54273 2.63325 4.23751 4.23992 4.23751C4.29325 4.23751 4.34659 4.21088 4.36659 4.1576L4.40659 4.07769C4.42957 4.02932 4.45316 3.97963 4.4771 3.92919C4.64765 3.56996 4.83633 3.17253 4.95325 2.93896C5.25992 2.33962 5.77992 2.00666 6.42659 2H9.56659C10.2133 2.00666 10.7399 2.33962 11.0466 2.93896C11.1516 3.14872 11.3116 3.48661 11.4657 3.81228C11.4976 3.87948 11.5291 3.94617 11.5599 4.0111L11.6266 4.1576ZM11.1399 6.71476C11.1399 7.04773 11.4066 7.3141 11.7399 7.3141C12.0733 7.3141 12.3466 7.04773 12.3466 6.71476C12.3466 6.3818 12.0733 6.10877 11.7399 6.10877C11.4066 6.10877 11.1399 6.3818 11.1399 6.71476ZM6.84671 7.74695C7.16004 7.43396 7.56671 7.26748 8.00004 7.26748C8.43338 7.26748 8.84004 7.43396 9.14671 7.74029C9.45338 8.04662 9.62004 8.45283 9.62004 8.88568C9.61338 9.77803 8.89338 10.5039 8.00004 10.5039C7.56671 10.5039 7.16004 10.3374 6.85338 10.0311C6.54671 9.72475 6.38004 9.31854 6.38004 8.88568V8.87902C6.37338 8.45949 6.54004 8.05328 6.84671 7.74695ZM9.84675 10.737C9.37341 11.2098 8.72008 11.5028 8.00008 11.5028C7.30008 11.5028 6.64675 11.2297 6.14675 10.737C5.65341 10.2375 5.38008 9.5849 5.38008 8.88568C5.37341 8.19312 5.64675 7.54051 6.14008 7.04106C6.64008 6.54162 7.30008 6.26859 8.00008 6.26859C8.70008 6.26859 9.36008 6.54162 9.85341 7.0344C10.3467 7.53385 10.6201 8.19312 10.6201 8.88568C10.6134 9.61154 10.3201 10.2641 9.84675 10.737Z" fill="white"/>
</svg>
