<svg width="20" height="20" viewBox="0 0 20 20" fill="none" xmlns="http://www.w3.org/2000/svg">
<path d="M3.80192 4C2.81317 4 2 4.82431 2 5.82888V14.1711C2 15.1757 2.81312 16 3.80192 16H16.2032C17.192 16 18 15.1757 18 14.1718V5.82905C18 4.82514 17.1919 4.00081 16.2032 4.00081L3.80192 4ZM3.80192 5.01532H16.2032C16.6551 5.01532 17.0001 5.36942 17.0001 5.82822V6.77755H3.00008V5.82887C3.00008 5.37007 3.34946 5.01597 3.80195 5.01597L3.80192 5.01532ZM3.00005 7.79293H17V8.65024H3.00005V7.79293ZM3.00005 9.66681H17V14.1711C17 14.6299 16.6551 14.984 16.2032 14.984L3.80189 14.9846C3.35002 14.9846 3.00002 14.6305 3.00002 14.1718L3.00005 9.66681ZM12.3869 11.3643C12.2538 11.3636 12.1257 11.4176 12.0313 11.5128C11.9369 11.6086 11.8844 11.7387 11.885 11.8738V13.7586C11.8857 14.0391 12.1107 14.2656 12.3869 14.2644H15.6351C15.9094 14.2637 16.132 14.0378 16.1332 13.7586V11.8738C16.1338 11.5934 15.9107 11.3655 15.6351 11.3643L12.3869 11.3643ZM12.8851 12.3796H15.1332V13.249H12.8851V12.3796Z" fill="#47BCC8"/>
</svg>
