<svg width="20" height="20" viewBox="0 0 20 20" fill="none" xmlns="http://www.w3.org/2000/svg">
<path d="M10 3C6.13129 3 3 6.13075 3 10C3 11.2278 3.32022 12.427 3.9283 13.4846L3.02638 16.2854C2.96347 16.4807 3.01517 16.6947 3.16022 16.8398C3.30388 16.9834 3.5174 17.0371 3.71457 16.9736L6.51538 16.0717C7.57303 16.6798 8.7722 17 10 17C13.8687 17 17 13.8692 17 10C17 6.13129 13.8692 3 10 3ZM10 15.9062C8.89098 15.9062 7.80994 15.5968 6.87373 15.0114C6.73904 14.9272 6.57178 14.9045 6.41615 14.9546L4.39432 15.6057L5.04544 13.5838C5.09479 13.4305 5.07396 13.263 4.98851 13.1263C4.40318 12.1901 4.09375 11.109 4.09375 10C4.09375 6.74332 6.74332 4.09375 10 4.09375C13.2567 4.09375 15.9062 6.74332 15.9062 10C15.9062 13.2567 13.2567 15.9062 10 15.9062ZM10.6836 10C10.6836 10.3775 10.3776 10.6836 10 10.6836C9.62242 10.6836 9.31641 10.3775 9.31641 10C9.31641 9.62242 9.62242 9.31641 10 9.31641C10.3776 9.31641 10.6836 9.62242 10.6836 10ZM13.418 10C13.418 10.3775 13.112 10.6836 12.7344 10.6836C12.3568 10.6836 12.0508 10.3775 12.0508 10C12.0508 9.62242 12.3568 9.31641 12.7344 9.31641C13.112 9.31641 13.418 9.62242 13.418 10ZM7.94922 10C7.94922 10.3775 7.6432 10.6836 7.26562 10.6836C6.88815 10.6836 6.58203 10.3775 6.58203 10C6.58203 9.62242 6.88815 9.31641 7.26562 9.31641C7.6432 9.31641 7.94922 9.62242 7.94922 10Z" fill="#200E32"/>
</svg>
