<svg width="32" height="32" viewBox="0 0 32 32" fill="none" xmlns="http://www.w3.org/2000/svg">
<g opacity="0.9" clip-path="url(#clip0)">
<path d="M26.6618 11.7627C25.1828 5.871 19.2078 2.29377 13.316 3.77273C8.7118 4.92854 5.36861 8.90792 5.02415 13.6425C1.75494 14.1816 -0.458254 17.2688 0.0808743 20.538C0.560134 23.4444 3.07848 25.5728 6.02404 25.5611H11.0235V23.5614H6.02404C3.81515 23.5614 2.02447 21.7707 2.02447 19.5618C2.02447 17.3529 3.81515 15.5622 6.02404 15.5622C6.57629 15.5622 7.02393 15.1146 7.02393 14.5624C7.01893 9.59234 11.0439 5.55929 16.0139 5.55435C20.3162 5.55004 24.0198 8.59158 24.852 12.8125C24.9342 13.234 25.2762 13.556 25.7019 13.6125C28.4355 14.0017 30.3358 16.5333 29.9466 19.2668C29.5971 21.7214 27.5013 23.549 25.022 23.5614H21.0224V25.5611H25.022C28.8875 25.5495 32.0117 22.4063 31.9999 18.5407C31.9902 15.323 29.7877 12.5263 26.6618 11.7627Z" fill="#47BCC8"/>
<path d="M15.313 15.8523L11.3135 19.8518L12.7233 21.2617L15.0231 18.9719V28.5609H17.0229V18.9719L19.3126 21.2617L20.7224 19.8518L16.7229 15.8523C16.3329 15.4646 15.7031 15.4646 15.313 15.8523Z" fill="#47BCC8"/>
</g>
<defs>
<clipPath id="clip0">
<rect width="32" height="32" fill="white"/>
</clipPath>
</defs>
</svg>
