<svg width="20" height="20" viewBox="0 0 20 20" fill="none" xmlns="http://www.w3.org/2000/svg">
<path fill-rule="evenodd" clip-rule="evenodd" d="M11.1859 1.66738C10.8729 1.65534 10.5616 1.76781 10.3271 1.98019C10.1404 2.14932 10.0136 2.37166 9.9642 2.61503L9.9458 2.7523L9.9416 2.87412L10.3118 8.31107C10.358 9.00408 10.968 9.53165 11.6778 9.49154L17.2157 9.13045C17.5398 9.10702 17.8368 8.96018 18.0454 8.72214C18.2115 8.5326 18.3115 8.29668 18.3315 8.04863L18.3334 7.88042L18.3254 7.78387C17.7524 4.33452 14.7571 1.76839 11.1859 1.66738ZM11.1761 2.87399L11.3573 2.88257C14.1766 3.05349 16.5265 5.06664 17.0712 7.77773L17.0986 7.92774L11.6012 8.28732C11.5734 8.28887 11.5448 8.26413 11.5426 8.23159L11.1761 2.87399ZM7.31785 4.87097C7.91835 4.78888 8.50916 5.10365 8.74815 5.6337C8.82123 5.77891 8.86516 5.93647 8.87778 6.10072L9.20156 10.6745C9.2059 10.7371 9.23559 10.7955 9.28406 10.8367C9.32042 10.8676 9.36509 10.8869 9.41503 10.8925L9.46661 10.8935L14.1117 10.6137C14.489 10.5915 14.8588 10.7228 15.1337 10.9764C15.4086 11.2301 15.5641 11.5836 15.562 11.9925C15.3555 15.0029 13.1442 17.5196 10.1325 18.1719C7.12088 18.8243 4.03011 17.456 2.5482 14.8206C2.15193 14.1412 1.88484 13.398 1.76152 12.6456L1.72204 12.3631C1.68777 12.1516 1.66935 11.938 1.66669 11.7328L1.66928 11.5308C1.67785 8.38775 3.88465 5.66989 6.9901 4.93682L7.20321 4.88993L7.31785 4.87097ZM7.51365 6.065L7.44343 6.07299L7.25304 6.116C4.77935 6.7122 3.00513 8.84181 2.90659 11.3507L2.90229 11.555C2.89637 11.7103 2.90204 11.8659 2.92078 12.0314L2.94393 12.2005C3.02673 12.9124 3.25658 13.6004 3.62425 14.2309C4.8469 16.4052 7.38887 17.5305 9.86579 16.9939C12.3427 16.4574 14.1613 14.3876 14.3298 11.9511C14.3299 11.9144 14.3144 11.8793 14.2872 11.8541C14.269 11.8373 14.2466 11.8259 14.2228 11.8208L14.1866 11.818L9.54916 12.0973C9.15778 12.1252 8.7712 11.9993 8.47498 11.7475C8.17876 11.4958 7.99732 11.1389 7.97097 10.7582L7.64748 6.18836C7.6469 6.18079 7.64484 6.1734 7.63064 6.14404C7.60954 6.09735 7.56369 6.06765 7.51365 6.065Z" fill="#47BCC8"/>
</svg>
