<svg width="20" height="20" viewBox="0 0 20 20" fill="none" xmlns="http://www.w3.org/2000/svg">
<path fill-rule="evenodd" clip-rule="evenodd" d="M11.1859 1.66738C10.8729 1.65534 10.5617 1.76781 10.3272 1.98019C10.1405 2.14932 10.0136 2.37166 9.96426 2.61503L9.94586 2.7523L9.94166 2.87412L10.3119 8.31107C10.358 9.00408 10.968 9.53165 11.6779 9.49154L17.2158 9.13045C17.5399 9.10702 17.8369 8.96018 18.0455 8.72214C18.2116 8.5326 18.3115 8.29668 18.3316 8.04863L18.3334 7.88042L18.3255 7.78387C17.7525 4.33452 14.7572 1.76839 11.1859 1.66738ZM11.1762 2.87399L11.3574 2.88257C14.1767 3.05349 16.5266 5.06664 17.0713 7.77773L17.0986 7.92774L11.6013 8.28732C11.5735 8.28887 11.5448 8.26413 11.5427 8.23159L11.1762 2.87399ZM7.31792 4.87097C7.91841 4.78888 8.50922 5.10365 8.74821 5.6337C8.82129 5.77891 8.86522 5.93647 8.87784 6.10072L9.20163 10.6745C9.20596 10.7371 9.23565 10.7955 9.28413 10.8367C9.32048 10.8676 9.36515 10.8869 9.41509 10.8925L9.46668 10.8935L14.1118 10.6137C14.489 10.5915 14.8588 10.7228 15.1337 10.9764C15.4086 11.2301 15.5641 11.5836 15.5621 11.9925C15.3555 15.0029 13.1443 17.5196 10.1326 18.1719C7.12094 18.8243 4.03018 17.456 2.54826 14.8206C2.15199 14.1412 1.8849 13.398 1.76158 12.6456L1.7221 12.3631C1.68783 12.1516 1.66941 11.938 1.66675 11.7328L1.66934 11.5308C1.67791 8.38775 3.88472 5.66989 6.99016 4.93682L7.20327 4.88993L7.31792 4.87097ZM7.51371 6.065L7.44349 6.07299L7.2531 6.116C4.77941 6.7122 3.00519 8.84181 2.90665 11.3507L2.90236 11.555C2.89643 11.7103 2.9021 11.8659 2.92084 12.0314L2.94399 12.2005C3.02679 12.9124 3.25665 13.6004 3.62431 14.2309C4.84696 16.4052 7.38893 17.5305 9.86585 16.9939C12.3428 16.4574 14.1614 14.3876 14.3299 11.9511C14.3299 11.9144 14.3145 11.8793 14.2872 11.8541C14.269 11.8373 14.2466 11.8259 14.2229 11.8208L14.1867 11.818L9.54922 12.0973C9.15784 12.1252 8.77126 11.9993 8.47504 11.7475C8.17882 11.4958 7.99738 11.1389 7.97104 10.7582L7.64754 6.18836C7.64696 6.18079 7.6449 6.1734 7.63071 6.14404C7.6096 6.09735 7.56375 6.06765 7.51371 6.065Z" fill="#200E32"/>
</svg>
