<svg width="20" height="20" viewBox="0 0 20 20" fill="none" xmlns="http://www.w3.org/2000/svg">
<path fill-rule="evenodd" clip-rule="evenodd" d="M11.1857 1.66738C10.8727 1.65534 10.5615 1.76781 10.3269 1.98019C10.1402 2.14932 10.0134 2.37166 9.96402 2.61503L9.94562 2.7523L9.94142 2.87412L10.3116 8.31107C10.3578 9.00408 10.9678 9.53165 11.6776 9.49154L17.2155 9.13045C17.5396 9.10702 17.8366 8.96018 18.0452 8.72214C18.2113 8.5326 18.3113 8.29668 18.3313 8.04863L18.3332 7.88042L18.3252 7.78387C17.7522 4.33452 14.7569 1.76839 11.1857 1.66738ZM11.1759 2.87399L11.3571 2.88257C14.1765 3.05349 16.5263 5.06664 17.0711 7.77773L17.0984 7.92774L11.601 8.28732C11.5732 8.28887 11.5446 8.26413 11.5424 8.23159L11.1759 2.87399ZM7.31767 4.87097C7.91817 4.78888 8.50898 5.10365 8.74797 5.6337C8.82105 5.77891 8.86498 5.93647 8.8776 6.10072L9.20138 10.6745C9.20572 10.7371 9.23541 10.7955 9.28388 10.8367C9.32024 10.8676 9.36491 10.8869 9.41485 10.8925L9.46643 10.8935L14.1116 10.6137C14.4888 10.5915 14.8586 10.7228 15.1335 10.9764C15.4084 11.2301 15.5639 11.5836 15.5618 11.9925C15.3553 15.0029 13.144 17.5196 10.1324 18.1719C7.12069 18.8243 4.02993 17.456 2.54802 14.8206C2.15175 14.1412 1.88465 13.398 1.76134 12.6456L1.72186 12.3631C1.68759 12.1516 1.66916 11.938 1.6665 11.7328L1.6691 11.5308C1.67767 8.38775 3.88447 5.66989 6.98991 4.93682L7.20302 4.88993L7.31767 4.87097ZM7.51347 6.065L7.44325 6.07299L7.25285 6.116C4.77916 6.7122 3.00495 8.84181 2.90641 11.3507L2.90211 11.555C2.89618 11.7103 2.90186 11.8659 2.9206 12.0314L2.94375 12.2005C3.02654 12.9124 3.2564 13.6004 3.62406 14.2309C4.84671 16.4052 7.38868 17.5305 9.86561 16.9939C12.3425 16.4574 14.1611 14.3876 14.3296 11.9511C14.3297 11.9144 14.3143 11.8793 14.287 11.8541C14.2688 11.8373 14.2464 11.8259 14.2227 11.8208L14.1864 11.818L9.54897 12.0973C9.15759 12.1252 8.77102 11.9993 8.4748 11.7475C8.17858 11.4958 7.99714 11.1389 7.97079 10.7582L7.64729 6.18836C7.64671 6.18079 7.64465 6.1734 7.63046 6.14404C7.60936 6.09735 7.56351 6.06765 7.51347 6.065Z" fill="#200E32"/>
</svg>
