<svg width="20" height="20" viewBox="0 0 20 20" fill="none" xmlns="http://www.w3.org/2000/svg">
<path fill-rule="evenodd" clip-rule="evenodd" d="M12.1723 1.67674C12.1364 1.67034 12.0995 1.66699 12.0618 1.66699C12.024 1.66699 11.9871 1.67034 11.9512 1.67674H6.7365C4.66376 1.67674 2.9165 3.35827 2.9165 5.40924V14.3367C2.9165 16.5039 4.587 18.2209 6.7365 18.2209H13.394C15.4384 18.2209 17.1265 16.4193 17.1265 14.3367V6.69841C17.1265 6.53706 17.0641 6.38197 16.9524 6.26558L12.7315 1.86891C12.6137 1.74614 12.4509 1.67674 12.2807 1.67674H12.1723ZM11.4368 2.92607L6.7365 2.92674C5.34362 2.92674 4.1665 4.05957 4.1665 5.40924V14.3367C4.1665 15.8211 5.28516 16.9709 6.7365 16.9709H13.394C14.7292 16.9709 15.8765 15.7465 15.8765 14.3367L15.876 7.48623L15.1464 7.48872C14.8684 7.48838 14.5521 7.48779 14.2004 7.48699C12.7258 7.48387 11.5224 6.32806 11.4411 4.87315L11.4368 4.71616V2.92607ZM15.1919 6.23686L14.2032 6.23699C13.3653 6.23522 12.6868 5.55487 12.6868 4.71616V3.62736L15.1919 6.23686ZM11.9034 12.34C12.2486 12.34 12.5284 12.6198 12.5284 12.965C12.5284 13.2814 12.2933 13.5429 11.9882 13.5843L11.9034 13.59H7.40592C7.06074 13.59 6.78092 13.3102 6.78092 12.965C6.78092 12.6486 7.01604 12.3871 7.32111 12.3457L7.40592 12.34H11.9034ZM10.8272 8.83816C10.8272 8.49298 10.5474 8.21316 10.2022 8.21316H7.40551L7.3207 8.21886C7.01564 8.26025 6.78051 8.52174 6.78051 8.83816C6.78051 9.18334 7.06033 9.46316 7.40551 9.46316H10.2022L10.287 9.45745C10.592 9.41607 10.8272 9.15457 10.8272 8.83816Z" fill="#1D1D26"/>
</svg>
