<svg width="20" height="20" viewBox="0 0 20 20" fill="none" xmlns="http://www.w3.org/2000/svg">
<path fill-rule="evenodd" clip-rule="evenodd" d="M10.5136 1.6665H9.48438C8.90474 1.6665 8.349 1.8928 7.94013 2.29532C7.57772 2.65209 7.35603 3.12247 7.31329 3.62301L7.3062 3.78468C7.29829 4.31111 6.87301 4.72179 6.35101 4.72174C6.23262 4.7205 6.10967 4.69349 5.99648 4.64259L5.88545 4.5846C4.85979 4.00831 3.52623 4.36131 2.92448 5.38455L2.38341 6.25563C1.80807 7.23358 2.09184 8.46214 3.02057 9.09491L3.14973 9.1761C3.46807 9.35682 3.65005 9.66564 3.65005 9.99984C3.65005 10.3072 3.49592 10.5946 3.23887 10.7689L3.15112 10.8227C2.18892 11.3675 1.80981 12.57 2.29347 13.5702L2.36415 13.7033L2.89527 14.6018C3.17132 15.0901 3.64438 15.4579 4.20387 15.6137C4.69977 15.7518 5.229 15.7136 5.69818 15.5069L5.84654 15.4343C6.09624 15.2928 6.3542 15.2589 6.59631 15.3224C6.83842 15.3859 7.04463 15.5415 7.16908 15.7546C7.23769 15.868 7.27797 15.985 7.29235 16.1062L7.29943 16.2293C7.29821 17.3742 8.27699 18.3332 9.48438 18.3332H10.5138C11.6539 18.3332 12.6001 17.4751 12.6927 16.3677L12.6994 16.2247C12.6988 15.9481 12.7987 15.7102 12.9774 15.535C13.1562 15.3599 13.399 15.262 13.6518 15.2632C13.768 15.2664 13.8957 15.2949 14.014 15.3467L14.1274 15.404C15.0844 15.9452 16.3383 15.6671 16.9842 14.7572L17.0671 14.6307L17.6167 13.7335C17.9127 13.2359 17.9928 12.6513 17.8434 12.1023C17.711 11.6158 17.4074 11.1913 16.9871 10.9033L16.848 10.8159C16.6062 10.6789 16.4468 10.4755 16.3818 10.2368C16.3169 9.99813 16.3517 9.74393 16.4786 9.53049C16.5489 9.41032 16.6424 9.31031 16.7544 9.23374L16.9688 9.10174C17.8371 8.52423 18.1623 7.3875 17.7052 6.43185L17.6578 6.33879C17.6476 6.31452 17.6357 6.29085 17.6223 6.26795L17.1113 5.39924C16.5428 4.43249 15.3134 4.05732 14.2885 4.52942L14.1519 4.59849C13.907 4.7389 13.6484 4.77439 13.4049 4.71245C13.1614 4.65051 12.9531 4.49623 12.8258 4.28363C12.7605 4.17581 12.7202 4.05883 12.7059 3.93763L12.6988 3.81455C12.7167 3.29124 12.4939 2.73051 12.0821 2.31543C11.6702 1.90035 11.1044 1.66627 10.5136 1.6665ZM9.48438 2.87295H10.5138C10.7721 2.87285 11.0192 2.97508 11.1991 3.15636C11.379 3.33764 11.4763 3.58253 11.4689 3.83524L11.4798 4.04529C11.517 4.36637 11.6132 4.6457 11.7652 4.89664C12.0563 5.38288 12.5354 5.73772 13.0954 5.88018C13.6554 6.02264 14.2503 5.94101 14.7488 5.65329L14.8347 5.61038L14.9272 5.57408C15.3342 5.44028 15.8138 5.60963 16.0443 6.00157L16.5317 6.83088L16.5422 6.85424L16.6012 6.96553C16.7984 7.37903 16.6336 7.90209 16.2069 8.14661L16.0729 8.22927C15.7888 8.42261 15.5709 8.6558 15.4124 8.92701C15.1227 9.41406 15.0426 9.99872 15.192 10.5477C15.3278 11.0467 15.6432 11.4788 16.077 11.7661L16.3039 11.9066C16.464 12.0171 16.596 12.2016 16.6536 12.4132C16.7186 12.6519 16.6837 12.9061 16.5568 13.1195L16.0198 13.9963L15.9594 14.0888C15.7109 14.438 15.2207 14.5677 14.8075 14.39L14.5441 14.2582C14.2505 14.1287 13.9632 14.0646 13.6713 14.057C13.0763 14.054 12.5179 14.2791 12.1067 14.6819C11.6956 15.0848 11.4658 15.6319 11.4686 16.2016L11.4639 16.2925C11.4251 16.7518 11.0116 17.1267 10.5138 17.1267H9.48438C8.99222 17.1267 8.58704 16.7619 8.5352 16.2932L8.51841 15.9986C8.48117 15.6775 8.38498 15.3981 8.23297 15.1472C7.9504 14.6631 7.474 14.3036 6.91464 14.157C6.35527 14.0103 5.75929 14.0886 5.25916 14.3746L5.16856 14.418C4.98823 14.4968 4.75709 14.5135 4.54051 14.4532C4.29617 14.3852 4.08956 14.2245 3.96643 14.0068L3.44206 13.1206L3.39515 13.0318C3.19651 12.6198 3.36144 12.0967 3.78882 11.8545L3.91866 11.7745C4.5286 11.3615 4.88145 10.7036 4.88145 9.99984C4.88145 9.28562 4.51847 8.62205 3.92012 8.22567L3.70286 8.09087C3.31897 7.82872 3.19497 7.29187 3.4429 6.8703L3.98397 5.99921C4.25425 5.53996 4.83666 5.3858 5.29341 5.64221L5.45372 5.72505C5.75312 5.86061 6.04673 5.92512 6.34455 5.92815C7.49991 5.9283 8.44465 5.05889 8.53087 3.95109L8.54206 3.69701C8.55898 3.50601 8.65537 3.30147 8.81294 3.14635C8.99072 2.97134 9.23235 2.87295 9.48438 2.87295ZM10.0029 7.27635C8.46762 7.27635 7.22307 8.4957 7.22307 9.99984C7.22307 11.504 8.46762 12.7233 10.0029 12.7233C11.5381 12.7233 12.7827 11.504 12.7827 9.99984C12.7827 8.4957 11.5381 7.27635 10.0029 7.27635ZM10.0029 8.4828C10.858 8.4828 11.5513 9.162 11.5513 9.99984C11.5513 10.8377 10.858 11.5169 10.0029 11.5169C9.14771 11.5169 8.45446 10.8377 8.45446 9.99984C8.45446 9.162 9.14771 8.4828 10.0029 8.4828Z" fill="#200E32"/>
</svg>
