<svg width="101" height="101" viewBox="0 0 101 101" fill="none" xmlns="http://www.w3.org/2000/svg">
<path d="M68.2801 28.2328C72.5809 28.2328 76.0809 31.7328 76.0809 36.0336C76.0809 40.3345 72.5809 43.8345 68.2801 43.8345C63.9793 43.8345 60.4793 40.3345 60.4793 36.0336C60.3816 31.7328 63.8816 28.2328 68.2801 28.2328ZM77.1824 73.8349H23.0804C20.3812 73.8349 18.682 70.8349 20.182 68.5341L38.881 39.7331C40.2794 37.6315 43.381 37.6314 44.6818 39.8346L56.7838 59.7326C57.2838 60.6311 58.483 60.7326 59.1822 60.0334L63.3814 56.0334C64.7798 54.7326 66.8814 54.7326 68.2798 56.135L79.6778 68.135C81.7794 70.2327 80.2794 73.8342 77.1817 73.8342L77.1824 73.8349Z" fill="white" fill-opacity="0.5"/>
</svg>
