<svg width="16" height="16" viewBox="0 0 16 16" fill="none" xmlns="http://www.w3.org/2000/svg">
<path fill-rule="evenodd" clip-rule="evenodd" d="M13.5247 3.49531C13.7841 3.49531 14 3.71064 14 3.98464V4.23797C14 4.5053 13.7841 4.72729 13.5247 4.72729H2.4759C2.21591 4.72729 2 4.5053 2 4.23797V3.98464C2 3.71064 2.21591 3.49531 2.4759 3.49531H4.41971C4.81457 3.49531 5.1582 3.21464 5.24703 2.81865L5.34882 2.36398C5.50702 1.74466 6.02766 1.33333 6.62351 1.33333H9.37649C9.96585 1.33333 10.4923 1.74466 10.6447 2.33132L10.7536 2.81798C10.8418 3.21464 11.1854 3.49531 11.5809 3.49531H13.5247ZM12.5373 12.756C12.7402 10.8647 13.0955 6.37141 13.0955 6.32608C13.1085 6.18875 13.0638 6.05875 12.9749 5.95408C12.8796 5.85608 12.759 5.79808 12.6261 5.79808H3.3791C3.24553 5.79808 3.11845 5.85608 3.03027 5.95408C2.9408 6.05875 2.89671 6.18875 2.90319 6.32608C2.90438 6.33441 2.91713 6.49268 2.93845 6.7573C3.03314 7.9328 3.29686 11.2068 3.46727 12.756C3.58787 13.8973 4.33674 14.6147 5.42146 14.6407C6.2585 14.66 7.12083 14.6667 8.00261 14.6667C8.83317 14.6667 9.6767 14.66 10.5397 14.6407C11.662 14.6213 12.4102 13.9167 12.5373 12.756Z" fill="#E27CB0"/>
</svg>
